<svg xmlns="http://www.w3.org/2000/svg" width="68" height="68" fill="none" viewBox="0 0 68 68">
  <rect width="68" height="68" fill="#2BBC5D" fill-opacity=".25" rx="20" transform="matrix(1 0 0 -1 0 68)"/>
  <g clip-path="url(#clip0_54:3)">
    <path fill="#2BBC5D" d="M49.852 47.169L37.8 54.119a6.625 6.625 0 01-6.6 0l-12.052-6.95a6.624 6.624 0 01-3.306-5.723V27.555a6.625 6.625 0 013.306-5.724l12.052-6.95a6.624 6.624 0 016.6 0l12.052 6.95a6.625 6.625 0 013.306 5.724v13.89a6.625 6.625 0 01-3.306 5.724zm.103-19.614a3.412 3.412 0 00-1.703-2.948L36.2 17.655a3.412 3.412 0 00-3.4 0l-12.052 6.95a3.412 3.412 0 00-1.703 2.949v13.89c0 1.213.652 2.343 1.703 2.949l12.052 6.95a3.412 3.412 0 003.4 0l12.052-6.95a3.412 3.412 0 001.703-2.948V27.555z"/>
    <path fill="#2BBC5D" d="M32.978 35.723l-5.948 5.034a1.602 1.602 0 11-2.07-2.446l4.504-3.811-4.503-3.811a1.602 1.602 0 012.069-2.446l5.948 5.034c.757.64.755 1.807 0 2.446zM43.005 31.068h-7.207a1.602 1.602 0 010-3.204h7.207a1.602 1.602 0 010 3.204z"/>
  </g>
  <defs>
    <clipPath id="clip0_54:3">
      <path fill="#fff" d="M0 0h41v41H0z" transform="matrix(1 0 0 -1 14 55)"/>
    </clipPath>
  </defs>
</svg>
