<svg xmlns="http://www.w3.org/2000/svg" width="68" height="68" fill="none" viewBox="0 0 68 68">
  <rect width="68" height="68" fill="#BE49E8" fill-opacity=".25" rx="20" transform="matrix(1 0 0 -1 0 68)"/>
  <path fill="#BE49E8" d="M53.438 54c-17.366 0-31.65-13.36-33.163-30.337 2.886 4.07 6.42 7.985 10.833 12.487a.855.855 0 001.22-1.196 202.256 202.256 0 01-3.157-3.294c-.069-.073-.137-.147-.205-.222-5.453-5.84-9.352-10.921-12.183-17.234a.855.855 0 011.56-.7c1.008 2.246 2.178 4.33 3.494 6.358A33.288 33.288 0 0150.32 37.366a.859.859 0 01-.02.844.86.86 0 01-.734.415h-3.163l5.673 3.242c.18.103.318.269.384.463a33.194 33.194 0 011.832 10.816.854.854 0 01-.855.854z"/>
</svg>
