<svg xmlns="http://www.w3.org/2000/svg" width="68" height="68" fill="none" viewBox="0 0 68 68">
  <rect width="68" height="68" fill="#5A9BE9" fill-opacity=".25" rx="20" transform="matrix(1 0 0 -1 0 68)"/>
  <path fill="#5398E9" d="M52.799 54h-4.885a1.2 1.2 0 01-1.201-1.201v-1.201h-9.83C36.384 52.993 35.062 54 33.5 54c-1.564 0-2.885-1.007-3.382-2.402h-9.83v1.2A1.2 1.2 0 0119.085 54H14.2A1.2 1.2 0 0113 52.799v-4.805a1.2 1.2 0 011.201-1.201h4.885a1.2 1.2 0 011.201 1.201v1.217h4.933c-4.168-2.604-6.917-7.178-7.246-12.3-1.44-.473-2.492-1.814-2.492-3.411a3.607 3.607 0 013.604-3.604A3.608 3.608 0 0122.69 33.5a3.601 3.601 0 01-2.318 3.356c.41 5.711 4.395 10.525 9.939 11.899.6-1.16 1.796-1.962 3.189-1.962s2.59.803 3.19 1.962c5.543-1.373 9.528-6.188 9.938-11.9A3.601 3.601 0 0144.31 33.5a3.608 3.608 0 013.604-3.604 3.607 3.607 0 013.604 3.604c0 1.597-1.051 2.938-2.492 3.41-.329 5.123-3.078 9.681-7.246 12.285h4.933v-1.2a1.2 1.2 0 011.201-1.202H52.8A1.2 1.2 0 0154 47.994V52.8A1.2 1.2 0 0152.799 54zM41.672 14.49c-.628 1.923-2.438 3.395-4.569 3.395h-7.207c-2.13 0-3.94-1.473-4.568-3.395-.242-.741.388-1.49 1.168-1.49h14.008c.78 0 1.41.749 1.168 1.49z"/>
  <path fill="#5398E9" d="M44.109 29.362L34.7 43.473V32.078c1.395-.498 2.402-1.819 2.402-3.383a3.607 3.607 0 00-3.603-3.603 3.608 3.608 0 00-3.604 3.603c0 1.564 1.008 2.885 2.403 3.383v11.395L22.89 29.362a1.201 1.201 0 01.15-1.516c2.206-2.205 3.615-5.046 4.159-8.093a7.153 7.153 0 002.697.534h7.206c.955 0 1.863-.195 2.697-.534.544 3.047 1.954 5.888 4.159 8.093.404.405.468 1.04.15 1.516z"/>
  <path fill="#5398E9" d="M33.5 29.896a1.202 1.202 0 010-2.402 1.202 1.202 0 010 2.402z"/>
</svg>
