<svg xmlns="http://www.w3.org/2000/svg" width="486" height="612" fill="none" viewBox="0 0 486 612">
  <path fill="#D6D8E5" d="M26.174 584.827L0 569.87l39.162-22.387 26.162 14.945-39.15 22.399z" opacity=".4"/>
  <path fill="#D6D8E5" d="M26.713 554.68L5.036 542.183l21.677-12.497 21.664 12.497-21.664 12.497z"/>
  <path fill="#B1B6C4" d="M26.713 579.674L5.036 567.177v-24.994l21.677 12.497v24.994z"/>
  <path fill="#C4C7D6" d="M48.39 567.177l-21.677 12.497V554.68l21.676-12.497v24.994z"/>
  <path fill="#574735" d="M55.84 559.368a7.363 7.363 0 005.575-.673c1.348 0 8.65-3.072 9.643-.453.87 2.289-2.291 4.418-3.982 4.822-3.676.894-6.421 2.73-7.904 3.048a3.674 3.674 0 01-3.406-.489c-1.054-1.102-.956-4.945.073-6.255z"/>
  <path fill="#F8982C" d="M59.172 565.415c1.483-.319 4.216-2.155 7.904-3.048 1.41-.343 3.848-1.885 4.093-3.733.33 2.117-2.525 3.99-4.093 4.369-3.676.894-6.42 2.73-7.903 3.048a3.687 3.687 0 01-3.407-.49 1.94 1.94 0 01-.478-.881 4.404 4.404 0 003.885.735z"/>
  <path fill="#574735" d="M42.68 552.306a7.36 7.36 0 005.575-.674c1.347 0 8.577-3.072 9.63-.453.87 2.289-2.29 4.419-3.97 4.823-3.675.893-6.42 2.729-7.903 3.048a3.687 3.687 0 01-3.406-.49c-1.054-1.04-.944-4.884.073-6.254z"/>
  <path fill="#F8982C" d="M46.012 558.413c1.483-.318 4.215-2.154 7.903-3.047 1.41-.343 3.848-1.885 4.093-3.734.33 2.118-2.524 3.991-4.093 4.37-3.676.893-6.42 2.729-7.903 3.048a3.687 3.687 0 01-3.407-.49 1.967 1.967 0 01-.478-.869 4.42 4.42 0 003.885.722z"/>
  <path fill="#F8982C" d="M22.179 543.236c5.698 2.448 11.028 2.888 15.452.538l4.533-2.619c.27 5.851.527 11.469.527 11.469s3.48 2.631 6.127.281c0 0 .564-8.201 1.14-16.279l4.754-2.742a5.523 5.523 0 00-.184 1.322c0 1.53 1.103 24.333 1.103 24.333s3.505 2.081 6.213-.257c0 0 1.825-26.426 2.242-30.6.466-4.749-4.803-7.087-8.148-5.875l-5.098 1.897.245-2.937c.478-4.749-4.803-7.087-8.136-5.875-3.04 1.113-23.576 8.8-23.576 8.8.128 1.975.37 3.94.723 5.888l-8.112-.686c-.429 7.577 4.51 10.845 10.195 13.342zm14.165-13.134l5.428-3.121c-.09.382-.148.771-.171 1.163l-5.257 1.958z"/>
  <path fill="#FFCEA9" d="M7.597 506.736s.662 10.074 1.985 11.53c1.324 1.457 5.808 2.448 5.808 2.448l3.444 5.606s-3.15-17.968-3.836-18.36c-.686-.392-7.4-1.224-7.4-1.224z"/>
  <path fill="#EDEDED" d="M14.226 495.536a3.793 3.793 0 00-4.803 1.408c-1.225 2.093-2.586 9.302-2.708 10.526a5.082 5.082 0 004.448 2.044l3.063-13.978z"/>
  <path fill="#FFCEA9" d="M15.44 495.72c1.74.086 3.039.526 3.26 0 .186-.897.317-1.804.391-2.717-.196-.514-.367-1.053-.367-1.053-2.194-1.346-2.88-3.672-3.174-6.463-.49-4.712 2.058-8.825 6.764-9.314 4.436-.465 7.695 2.644 8.577 6.915.466 2.106 1.397 6.12.135 9.56-.698 1.934-1.605 3.476-2.45 3.77a20.933 20.933 0 01-2.623-.221s-.233 1.31-.392 2.142c-.16.833-.11 1.286 1.569 2.314 1.678 1.028-2.525 3.145-5.27 2.937-2.744-.208-5.832-1.86-6.678-3.672-1.017-1.983-.943-4.308.258-4.198z"/>
  <path fill="#E5E5E5" d="M59.626 526.504a1.415 1.415 0 01-.711 1.224L45.62 535.39a1.408 1.408 0 01-1.422 0l-18.625-10.747a1.396 1.396 0 01-.71-1.224v-.098l34.763 3.183z"/>
  <path fill="#E5E5E5" d="M58.915 527.728L45.62 535.39c-.214.13-.46.198-.71.196v-9.082h14.703a1.414 1.414 0 01-.698 1.224z"/>
  <path fill="#F4F4F4" d="M45.411 534.692a.964.964 0 01-.992 0l-19.373-11.163c-.245-.147-.245-.379 0-.514l14.263-8.237 20.317 11.726-14.215 8.188z"/>
  <path fill="#BFBFBF" d="M32.998 526.504l.099.049 6.212 3.586 3.407-1.971.098-.049-6.311-3.635-3.505 2.02z"/>
  <path fill="#E5E5E5" d="M33.097 526.553l6.212 3.586 3.407-1.971-6.213-3.574-3.406 1.959z"/>
  <path fill="#3A2C6D" d="M54.357 527.079l.894.514a.29.29 0 00.282 0l.858-.49c.086 0 .098-.122 0-.159l-.895-.526a.328.328 0 00-.281 0l-.858.502c-.062.049-.074.122 0 .159zM53.095 526.32l.894.514a.29.29 0 00.282 0l.858-.49c.086 0 .086-.122 0-.159l-.895-.514a.301.301 0 00-.14-.036.301.301 0 00-.142.036l-.857.49c-.062.073-.074.159 0 .159zM51.82 525.622l.895.514a.355.355 0 00.294 0l.845-.489c.086 0 .098-.123 0-.172l-.894-.514a.301.301 0 00-.141-.036.301.301 0 00-.141.036l-.858.49c-.061.049-.073.122 0 .171zM50.558 524.888l.895.514a.327.327 0 00.14.031c.05 0 .097-.01.141-.031l.858-.49c.086 0 .098-.122 0-.171l-.894-.514a.356.356 0 00-.294 0l-.846.49c-.061.049-.074.122 0 .171zM49.284 524.153l.906.515a.3.3 0 00.282 0l.846-.49c.085 0 .098-.122 0-.159l-.895-.526a.327.327 0 00-.282 0l-.857.501c-.062.049-.074.123 0 .159zM48.021 523.419l.895.526a.327.327 0 00.282 0l.857-.501c.086 0 .099-.123 0-.16l-.894-.514a.326.326 0 00-.147-.036.326.326 0 00-.147.036l-.846.49c-.06.049-.073.122 0 .159zM46.76 522.648l.894.514a.328.328 0 00.282 0l.857-.49c.086 0 .086-.122 0-.171l-.894-.514a.327.327 0 00-.141-.031.327.327 0 00-.141.031l-.858.49c-.073.098-.073.171 0 .171zM45.485 521.963l.895.514a.3.3 0 00.282 0l.857-.49c.086 0 .098-.122 0-.159l-.894-.526a.328.328 0 00-.282 0l-.858.501c-.061.049-.073.123 0 .16zM44.223 521.228l.894.514a.29.29 0 00.282 0l.858-.489c.086 0 .086-.123 0-.16l-.92-.526a.301.301 0 00-.14-.036.301.301 0 00-.141.036l-.858.49c-.086.061-.086.134.025.171zM42.949 520.506l.894.514a.355.355 0 00.294 0l.846-.49c.085 0 .098-.122 0-.171l-.87-.526a.29.29 0 00-.282 0l-.858.489c-.086.062-.086.135-.024.184zM41.662 519.772l.895.514a.342.342 0 00.281 0l.858-.49c.086 0 .098-.122 0-.171l-.808-.527a.355.355 0 00-.295 0l-.845.49c-.086.061-.086.135-.086.184zM40.436 519.037l.907.514a.29.29 0 00.282 0l.858-.489c.073 0 .086-.123 0-.159l-.895-.527a.342.342 0 00-.282 0l-.857.502c-.098.098-.098.098-.013.159zM39.211 518.303l.895.526a.328.328 0 00.282 0l.857-.502c.086 0 .098-.122 0-.159l-.894-.514a.314.314 0 00-.294 0l-.846.49c-.122.049-.134.122 0 .159zM37.275 517.226l1.507.869a.342.342 0 00.282 0l.858-.49c.086 0 .086-.122 0-.171l-1.495-.906a.327.327 0 00-.282 0l-.858.502a.098.098 0 00-.049.186.095.095 0 00.037.01zM51.244 526.699l.907.515a.3.3 0 00.282 0l.858-.49c.073 0 .085-.122 0-.159l-.895-.514a.29.29 0 00-.282 0l-.857.489c-.074.049-.074.123-.013.159zM49.982 525.965l.895.526a.328.328 0 00.282 0l.857-.502c.086 0 .098-.122 0-.159l-.894-.514a.327.327 0 00-.147-.036.326.326 0 00-.147.036l-.846.49c-.061.049-.073.122 0 .159zM48.708 525.243l.894.514a.355.355 0 00.295 0l.845-.49c.086 0 .098-.122 0-.171l-.895-.514a.328.328 0 00-.281 0l-.858.49c-.061.024-.074.122 0 .171zM47.446 524.508l.894.514a.328.328 0 00.282 0l.858-.489c.086 0 .086-.122 0-.171l-.895-.515a.342.342 0 00-.282 0l-.857.49c-.074.049-.074.122 0 .171zM46.184 523.774l.894.526a.328.328 0 00.282 0l.858-.501c.085 0 .098-.123 0-.16l-.895-.514a.326.326 0 00-.147-.036.326.326 0 00-.147.036l-.846.49c-.06.049-.073.122 0 .159zM44.909 523.052l.895.514a.355.355 0 00.294 0l.845-.49c.086 0 .098-.122 0-.171l-.894-.514a.327.327 0 00-.282 0l-.858.49c-.061.049-.073.122 0 .171zM43.647 522.318l.894.514a.342.342 0 00.282 0l.858-.49c.086 0 .086-.122 0-.171l-.895-.514a.328.328 0 00-.281 0l-.858.489c-.074.049-.074.123 0 .172zM42.372 521.583l.895.514a.29.29 0 00.282 0l.858-.489c.085 0 .098-.123 0-.16l-.895-.526a.355.355 0 00-.294 0l-.846.502c-.06 0-.073.122 0 .159zM41.098 520.849l.907.514a.301.301 0 00.14.036.3.3 0 00.142-.036l.858-.49c.073 0 .085-.122 0-.159l-.895-.514a.29.29 0 00-.282 0l-.858.49c-.073.049-.073.122-.012.159zM39.836 520.114l.895.527a.342.342 0 00.282 0l.857-.502c.086 0 .098-.123 0-.159l-.894-.514a.314.314 0 00-.294 0l-.846.489c-.061.049-.073.123 0 .159zM38.562 519.392l.894.514a.355.355 0 00.294 0l.846-.489c.086 0 .098-.123 0-.172l-.894-.514a.327.327 0 00-.142-.031.327.327 0 00-.14.031l-.858.49c-.061.049-.074.122 0 .171zM37.3 518.658l.894.514a.327.327 0 00.141.031c.049 0 .097-.01.141-.031l.858-.49c.086 0 .086-.122 0-.171l-.895-.514a.328.328 0 00-.282 0l-.857.489c-.074.049-.074.123 0 .172zM52.518 527.434l1.508.869a.327.327 0 00.14.031c.05 0 .097-.01.141-.031l.858-.49c.086 0 .098-.122 0-.171l-1.507-.869a.355.355 0 00-.294 0l-.846.502c-.06.049-.073.122 0 .159zM37.19 517.262l.894.514c.074 0 .074.111 0 .16l-.907.514a.243.243 0 01-.128.036.243.243 0 01-.129-.036h-.073a.275.275 0 00-.123-.028.274.274 0 00-.122.028l-.956.55a.33.33 0 01-.27 0l-.563-.33c-.074 0-.074-.11 0-.159l.894-.514.184-.098.135-.086.134-.073.76-.441a.28.28 0 01.13-.055.278.278 0 01.14.018zM49.443 529.906l.894.514a.29.29 0 00.282 0l.858-.489c.086 0 .086-.123 0-.159l-.895-.514a.29.29 0 00-.282 0l-.857.489c-.061.049-.074.123 0 .159zM48.18 529.184l.895.514a.328.328 0 00.282 0l.858-.489c.085 0 .085-.123 0-.172l-.895-.514a.327.327 0 00-.14-.031.327.327 0 00-.142.031l-.857.49c-.074.049-.074.122 0 .171zM46.906 528.45l.907.514a.301.301 0 00.141.036.3.3 0 00.14-.036l.859-.49c.073 0 .085-.122 0-.159l-.895-.514a.29.29 0 00-.282 0l-.857.502c-.074.037-.074.11-.013.147zM36.148 522.244l.894.514a.314.314 0 00.294 0l.846-.489c.086 0 .098-.123 0-.16l-.895-.526a.327.327 0 00-.14-.031.326.326 0 00-.141.031l-.858.502c-.061.049-.074.122 0 .159zM34.886 521.522l.894.514a.327.327 0 00.141.031c.049 0 .097-.01.14-.031l.859-.502c.085 0 .098-.11 0-.159l-.895-.514a.314.314 0 00-.294 0l-.845.489c-.062.074-.074.074 0 .172zM33.624 520.787l.894.515a.3.3 0 00.282 0l.858-.49c.086 0 .098-.122 0-.159l-.895-.526a.355.355 0 00-.294 0l-.845.501c-.061.049-.074.123 0 .159zM32.362 520.053l.894.526a.327.327 0 00.282 0l.858-.501c.085 0 .085-.123 0-.16l-.907-.514a.301.301 0 00-.14-.036.301.301 0 00-.142.036l-.858.49c-.049.049-.06.122.013.159zM45.338 527.544l1.225.71a.355.355 0 00.295 0l.845-.49c.086 0 .098-.122 0-.171l-1.225-.698a.301.301 0 00-.141-.036.301.301 0 00-.141.036l-.858.49c-.073.037-.086.159 0 .159zM37.41 522.978l1.225.698a.29.29 0 00.282 0l.858-.489c.086 0 .098-.123 0-.172l-1.225-.697a.328.328 0 00-.282 0l-.858.489c-.061.049-.073.122 0 .171zM39.003 523.872l5.955 3.439a.328.328 0 00.282 0l.858-.489c.086 0 .086-.123 0-.172l-5.943-3.427a.326.326 0 00-.147-.036.326.326 0 00-.147.036l-.846.49c-.073.061-.086.159-.012.159zM49.676 527.213l.894.515a.3.3 0 00.282 0l.858-.49c.085 0 .098-.122 0-.171l-.895-.514a.355.355 0 00-.294 0l-.845.489c-.062.049-.074.123 0 .171zM48.413 526.479l.895.514a.29.29 0 00.282 0l.857-.489c.086 0 .086-.123 0-.16l-.894-.514a.3.3 0 00-.14-.036.301.301 0 00-.142.036l-.858.49c-.06 0-.073.122 0 .159zM47.14 525.757l.906.514a.328.328 0 00.282 0l.858-.49c.073 0 .085-.122 0-.171l-.895-.514a.328.328 0 00-.282 0l-.858.49c-.073.049-.073.122-.012.171zM45.877 525.023l.895.514a.301.301 0 00.14.036c.05 0 .098-.013.142-.036l.857-.49c.086 0 .098-.122 0-.171l-.894-.514a.328.328 0 00-.282 0l-.858.501c-.061.049-.073.123 0 .16zM44.615 524.288l.895.514a.29.29 0 00.281 0l.858-.502c.086 0 .098-.122 0-.159l-.894-.514a.327.327 0 00-.147-.036.327.327 0 00-.147.036l-.846.49c-.061.061-.073.134 0 .171zM43.353 523.566l.895.514a.328.328 0 00.281 0l.858-.49c.074 0 .086-.122 0-.171l-.894-.514a.327.327 0 00-.141-.031.327.327 0 00-.141.031l-.858.49c-.074.049-.074.122 0 .171zM42.078 522.832l.895.514a.326.326 0 00.147.036.327.327 0 00.147-.036l.846-.49c.085 0 .098-.122 0-.159l-.895-.526a.328.328 0 00-.282 0l-.858.501c-.06.049-.073.123 0 .16zM40.817 522.097l.845.551a.327.327 0 00.141.031c.049 0 .097-.01.14-.031l.859-.502c.085 0 .098-.122 0-.159l-.895-.514a.314.314 0 00-.294 0l-.845.49a.1.1 0 00.049.134zM39.554 521.424l.895.514a.328.328 0 00.282 0l.857-.49c.086 0 .086-.122 0-.171l-.894-.514a.326.326 0 00-.141-.031.327.327 0 00-.141.031l-.858.49c-.073 0-.073.073 0 .171zM38.28 520.641l.895.514a.326.326 0 00.147.036.326.326 0 00.147-.036l.845-.49c.086 0 .098-.122 0-.159l-.894-.526a.328.328 0 00-.282 0l-.858.502c-.061.048-.073.122 0 .159zM37.018 519.906l.894.527a.342.342 0 00.282 0l.858-.502c.086 0 .098-.123 0-.159l-.895-.514a.314.314 0 00-.294 0l-.845.489c-.061.049-.074.123 0 .159z"/>
  <path fill="#3A2C6D" d="M35.756 519.184l.894.514a.328.328 0 00.282 0l.858-.489c.086 0 .086-.123 0-.172l-.895-.514a.327.327 0 00-.14-.031.326.326 0 00-.141.031l-.858.49c-.074.049-.074.122 0 .171zM50.938 527.948l1.862 1.065a.342.342 0 00.282 0l.846-.49c.086 0 .098-.122 0-.171l-1.85-1.065a.29.29 0 00-.282 0l-.858.49c-.061.048-.074.122 0 .171zM49.075 528.278l.895.527a.342.342 0 00.282 0l.857-.502c.086 0 .098-.123 0-.159l-.894-.514a.29.29 0 00-.282 0l-.858.489c-.061.049-.061.123 0 .159zM47.789 527.544l.894.514a.328.328 0 00.282 0l.858-.49c.085 0 .098-.122 0-.171l-.907-.514a.327.327 0 00-.141-.031.326.326 0 00-.14.031l-.846.49v.171zM46.563 526.822l.895.514a.3.3 0 00.14.036c.05 0 .099-.013.142-.036l.857-.49c.074 0 .086-.122 0-.159l-.894-.526a.327.327 0 00-.282 0l-.858.502c-.085.049-.085.122 0 .159zM45.338 526.087l.895.527a.355.355 0 00.294 0l.845-.502c.086 0 .098-.123 0-.159l-.894-.514a.29.29 0 00-.282 0l-.858.489c-.122.049-.135.123 0 .159zM44.014 525.365l.895.514a.328.328 0 00.282 0l.858-.489c.085 0 .098-.123 0-.172l-.895-.514a.355.355 0 00-.294 0l-.846.49c-.06.049-.073.122 0 .171zM42.752 524.631l.895.514a.301.301 0 00.14.036.3.3 0 00.142-.036l.857-.49c.086 0 .086-.122 0-.159l-.894-.514a.301.301 0 00-.14-.036.3.3 0 00-.142.036l-.858.49c-.073.049-.073.122 0 .159zM41.478 523.872l.894.514a.355.355 0 00.294 0l.846-.49c.086 0 .098-.122 0-.171l-.895-.514a.29.29 0 00-.281 0l-.858.49c-.061.085-.074.171 0 .171zM40.216 523.174l.895.514a.29.29 0 00.282 0l.857-.489c.086 0 .098-.123 0-.172l-.894-.514a.355.355 0 00-.294 0l-.846.502c-.061.037-.073.11 0 .159zM38.954 522.44l.894.514a.314.314 0 00.282 0l.858-.502c.086 0 .086-.122 0-.159l-.907-.514a.29.29 0 00-.282 0l-.857.49c-.05.061-.062.134.012.171zM37.692 521.718l.894.514a.326.326 0 00.141.031c.049 0 .097-.01.141-.031l.858-.49c.074 0 .086-.122 0-.171l-.895-.514a.327.327 0 00-.281 0l-.858.489c-.074.049-.074.123 0 .172zM36.417 520.983l.895.514a.314.314 0 00.294 0l.845-.489c.086 0 .099-.123 0-.159l-.894-.527a.342.342 0 00-.282 0l-.858.502c-.06.049-.073.123 0 .159zM33.587 519.355l2.45 1.42a.328.328 0 00.282 0l.858-.502c.086 0 .098-.122 0-.159l-2.45-1.42a.326.326 0 00-.295 0l-.845.49c-.062.049-.074.122 0 .171zM50.337 529.013l1.225.71a.342.342 0 00.282 0l.858-.502c.086 0 .098-.123 0-.159l-1.225-.71a.328.328 0 00-.282 0l-.858.502c-.098.049-.098.122 0 .159z"/>
  <g>
    <path fill="#E5E5E5" d="M59.626 526.504l-20.317-11.726v-15.912l.16-.368.159-.073a1.385 1.385 0 011.409 0l18.589 10.71a1.44 1.44 0 01.698 1.224v14.982c-.135.722-.282.906-.698 1.163z"/>
    <path fill="#E5E5E5" d="M57.763 511.032l-18.454-11.64v-.526l.16-.368.159-.073a1.385 1.385 0 011.409 0l18.588 10.71c.23.13.413.326.527.563l-2.39 1.334z"/>
    <path fill="#DCEEFF" d="M39.775 498.462l19.508 11.248a.7.7 0 01.343.588v16.206l-20.317-11.726v-16.047a.305.305 0 01.153-.273.308.308 0 01.313.004z"/>
    <path fill="#F4F4F4" d="M39.775 498.462l19.508 11.248a.7.7 0 01.343.588v16.206l-20.317-11.726v-16.047a.305.305 0 01.153-.273.308.308 0 01.313.004z"/>
    <path fill="#DBDBDB" d="M59.626 526.504v-.588l-20.317-11.714v.576l20.317 11.726z"/>
    <path fill="#1E3779" d="M39.836 513.933v-14.627l.245.135v14.37l-.245.122z"/>
    <path fill="#3A2C6D" d="M40.081 499.441v14.37l18.895 10.857v-14.333l-18.895-10.894z"/>
    <path fill="#031F60" d="M39.836 513.933l19.14 11.028v-.293l-18.895-10.857-.245.122z"/>
  </g>
  <path fill="#F4F4F4" d="M17.964 495.928c-.49 1.224.747 2.668 4.019 3.672 3.271 1.004 3.566-.294 3.566-.294a65.634 65.634 0 016.371 3.281c1.96 1.37 2.83 5.349 3.1 12.056.307 7.76.331 19.266.074 21.261 0 0-3.676 3.672-8.37 3.268-4.692-.404-12.62-4.541-14.532-7.748 0-6.805.846-7.919-.257-11.836-2.524-8.972-3.86-12.644-2.622-18.617 1.004-4.896 2.45-5.52 4.374-5.471 1.432.067 2.86.21 4.277.428z"/>
  <path fill="#FFCEA9" d="M42.752 522.978c-3.86.98-4.766-1.456-5.269-3.463-1.225-4.896-1.887-9.278-2.806-12.045-1.078-3.255-2.205-3.782-3.798-4.418-1.85-.747-3.456.832-2.843 4.981a83.522 83.522 0 003.541 14.174 12.54 12.54 0 003.162 5.508c1.997 1.616 5 1.543 9.533.416a52.225 52.225 0 007.72-3.341c.98-.453 1.74-.759 3.676-1.64a12.792 12.792 0 004.901-3.77c.98-1.432 1.115-2.105.92-2.448-.197-.343-.711-.318-1.226.281a10.485 10.485 0 01-2.77 2.559s1.226-1.224 1.875-2.069a10.506 10.506 0 001.459-2.448c.355-.832-.368-1.958-.92-1.371-.55.588-.796 1.224-1.8 2.448a10.121 10.121 0 01-1.79 1.701 19.31 19.31 0 001.654-2.643c.43-.742.639-1.592.6-2.448 0-.429-.649-.943-1.224-.123a15.717 15.717 0 01-2.206 3.244c-.882.918-1.63 1.444-1.654 1.224-.025-.22.539-.759.845-1.812.306-1.052 0-2.191-.588-2.313-.588-.122-.478-.098-.944.906a27.349 27.349 0 00-1.752 3.182 6.611 6.611 0 01-1.593 2.73c-.931.967-3.026 2.08-6.703 2.998z"/>
  <path fill="#EDEDED" d="M29.408 502.391c2.573-.38 4.4.783 5.539 4.675 1.14 3.893 1.924 7.1 1.924 7.1a6.986 6.986 0 01-4.314 2.864c-3.075.746-4.19-.722-4.19-.722s-.858-4.089-1.385-6.867c-.527-2.778-.71-6.585 2.426-7.05z"/>
  <path fill="#73512A" d="M30.732 482.427s4.068-6.181-4.755-7.442c-6.36-.905-10.452 3.171-10.918 7.601-.453 4.235 2.157 8.63 4.032 10.38a7.692 7.692 0 005.502-.661c.105-1.156.146-2.316.122-3.476 0 0-3.1-6.512 6.017-6.402z"/>
  <path fill="#C4C7D6" d="M48.39 560.653v-18.568l-14.767 8.605 5.686 11.738 9.08-1.775z"/>
  <path fill="#D6D8E5" d="M38.709 543.15l5.661-3.28 4.007 2.313-5.87 3.329-3.798-2.362z"/>
  <g>
    <path fill="#D6D8E5" d="M272.151 459l-69.747-40.221c-5.036-2.901-4.399-7.968 1.409-11.322l45.191-26.059 87.968 50.772-45.178 26.059c-5.821 3.354-14.607 3.709-19.643.771z" opacity=".4"/>
    <path fill="#B1B4C4" d="M277.249 456.05l-69.76-40.233c-5.024-2.901-4.387-7.956 1.409-11.309l45.191-26.059 87.969 50.722-45.191 26.071c-5.809 3.342-14.594 3.758-19.618.808z"/>
    <path fill="#B1B4C4" d="M342.057 429.171v-2.656l-4.056 2.338 4.056.318zM204.095 411.031v-2.705l4.179 1.726-4.179.979z"/>
    <path fill="#D6D8E5" d="M277.249 453.394l-69.76-40.233c-5.024-2.901-4.387-7.968 1.409-11.31l45.191-26.083 87.969 50.735-45.191 26.059c-5.809 3.366-14.594 3.721-19.618.832z"/>
    <path fill="#9EA1AF" d="M254.334 375.903l-10.893-36.084 88.924 50.955 9.692 35.741-87.723-50.612z"/>
    <path fill="#9EA1AF" d="M339.484 427.996l2.574-1.481-3.86-3.011 1.286 4.492z"/>
    <path fill="#B1B4C4" d="M251.528 377.261l-10.893-36.083 88.924 50.955 9.925 35.863-87.956-50.735z"/>
    <path fill="#C4C7D6" d="M477.263 488.804L133.049 290.296c-4.828-2.791-8.737-10.257-8.737-16.683V7.65c0-6.426 3.909-9.388 8.737-6.597l344.214 198.459c4.828 2.778 8.737 10.245 8.737 16.683v266.061c0 6.377-3.909 9.339-8.737 6.548z"/>
    <path fill="#C4C7D6" d="M479.028 491.546l3.823-2.191-1.654-11.297-2.169 13.488z"/>
    <path fill="#B1B4C4" d="M123.687 2.68l3.75-2.154 5.391 3.073s-5.747.869-5.882.832c-.134-.037-3.259-1.75-3.259-1.75z"/>
    <path fill="#E4E7F2" d="M474.102 490.628L129.888 292.12c-4.828-2.791-8.749-10.257-8.749-16.683V9.474c0-6.438 3.921-9.388 8.749-6.61L474.09 201.373c4.828 2.79 8.749 10.257 8.749 16.695v265.951c.012 6.438-3.909 9.388-8.737 6.609z"/>
    <path fill="#201D38" d="M473.501 490.971L129.287 292.463c-4.828-2.791-8.737-10.258-8.737-16.684V9.792c0-6.426 3.909-9.388 8.737-6.597l344.214 198.532c4.828 2.779 8.737 10.245 8.737 16.684v265.963c0 6.45-3.909 9.388-8.737 6.597z"/>
    <path fill="url(#paint0_linear_11:161)" d="M477.508 474.802L124.913 271.459l.183-260.578c0-2.668 1.875-3.745 4.191-2.448l344.214 198.545a9.252 9.252 0 012.964 3.122 9.248 9.248 0 011.227 4.124l-.184 260.578z" opacity=".3"/>
    <g>
      <path fill="#A298E2" d="M434.474 242.523l-91.142-52.619v-8.422l91.142 52.62v8.421z"/>
      <path fill="#C33AFC" d="M371.074 300.21l-27.742-16.009v-8.409l27.742 15.997v8.421z"/>
      <path fill="#4D3BFF" d="M353.551 263.16l-10.219-5.9v-8.421l10.219 5.9v8.421z"/>
      <path fill="#C33AFC" d="M221.397 176.427l-29.2-16.842v-8.421l29.2 16.842v8.421z"/>
      <path fill="#F4CE2C" d="M284.184 239.586l-91.987-53.048v-8.422l91.987 53.049v8.421z"/>
    </g>
    <g>
      <path fill="#4D3BFF" d="M359.776 213.062l-16.444-9.682v-8.421l16.444 9.682v8.421zM400.017 330.517l-56.685-32.84v-8.421l56.685 32.84v8.421z"/>
      <path fill="#A298E2" d="M349.998 355.78l-6.666-4.21v-8.422l6.666 4.211v8.421z"/>
      <path fill="#FF8657" d="M273.965 179.793l-81.768-47.148v-8.421l81.768 47.148v8.421zM219.939 215.999l-27.742-15.997v-8.421l27.742 15.997v8.421z"/>
    </g>
    <g>
      <path fill="#A298E2" d="M338.957 295.155l-23.367-13.476v-8.421l23.367 13.476v8.421zM338.957 254.739l-23.367-13.476v-8.422l23.367 13.477v8.421zM187.822 210.956l-23.367-13.476v-8.421l23.367 13.476v8.421z"/>
    </g>
    <g>
      <path fill="#A298E2" d="M338.957 200.846l-23.367-13.464v-8.421l23.367 13.464v8.421zM338.957 281.679l-23.367-13.464v-8.421l23.367 13.464v8.421zM338.957 308.632l-23.367-13.477v-8.421l23.367 13.477v8.421zM187.822 157.064l-23.367-13.477v-8.421l23.367 13.477v8.421zM187.822 224.42l-23.367-13.476v-8.409l23.367 13.464v8.421z"/>
    </g>
    <g>
      <path fill="#A298E2" d="M338.957 214.322l-23.367-13.476v-8.421l23.367 13.476v8.421zM338.957 335.572l-23.367-13.476v-8.422l23.367 13.477v8.421zM187.822 89.707l-23.367-13.476V67.81l23.367 13.476v8.421zM187.822 143.587l-23.367-13.464v-8.421l23.367 13.464v8.421zM187.822 251.373l-23.367-13.476v-8.421l23.367 13.476v8.421z"/>
    </g>
    <g>
      <path fill="#FF8657" d="M416.498 272.413l-73.166-42.093v-8.421l73.166 42.106v8.408z"/>
      <path fill="#A298E2" d="M435.319 323.785l-91.987-53.048v-8.422l91.987 53.049v8.421z"/>
      <path fill="#4D3BFF" d="M385.938 349.048l-42.606-24.431v-8.409l42.606 24.419v8.421z"/>
      <path fill="#F4CE2C" d="M257.9 157.064l-65.703-37.895v-8.422l65.703 37.896v8.421z"/>
      <path fill="#4D3BFF" d="M269.578 217.688l-77.381-44.627v-8.421l77.381 44.627v8.421z"/>
      <path fill="#C33AFC" d="M202.416 232.842l-10.219-5.888v-8.421l10.219 5.887v8.422z"/>
      <path fill="#F4CE2C" d="M211.177 264.837l-18.98-10.943v-8.421l18.98 10.943v8.421z"/>
    </g>
    <g>
      <path fill="#A298E2" d="M338.957 241.263l-23.367-13.477v-8.421l23.367 13.477v8.421zM338.957 349.048l-23.367-13.476v-8.421l23.367 13.476v8.421zM187.822 116.647l-23.367-13.476V94.75l23.367 13.476v8.421zM187.822 197.48l-23.367-13.476v-8.421l23.367 13.476v8.421zM187.822 264.837l-23.367-13.464v-8.421l23.367 13.464v8.421z"/>
    </g>
    <g>
      <path fill="#4D3BFF" d="M371.074 232.842l-27.742-15.998v-8.421l27.742 15.997v8.422z"/>
      <path fill="#C33AFC" d="M379.921 332.206l-36.589-21.053v-8.421l36.589 21.053v8.421z"/>
      <path fill="#FF8657" d="M396.721 368.497l-53.389-30.404v-8.421l53.389 30.404v8.421z"/>
      <path fill="#A298E2" d="M249.139 178.961l-56.942-32.84V137.7l56.942 32.84v8.421z"/>
      <path fill="#4D3BFF" d="M241.836 134.334l-49.639-28.629v-8.421l49.639 28.629v8.421z"/>
      <path fill="#A298E2" d="M273.965 260.626l-81.768-47.148v-8.421l81.768 47.16v8.409z"/>
      <path fill="#FF8657" d="M241.836 296l-49.639-28.629v-8.422l49.639 28.63V296z"/>
    </g>
    <g>
      <path fill="#A298E2" d="M338.957 187.382l-23.367-13.476v-8.421l23.367 13.476v8.421zM338.957 268.215l-23.367-13.476v-8.421l23.367 13.476v8.421zM338.957 362.512l-23.367-13.464v-8.421l23.367 13.464v8.421zM187.822 130.123l-23.367-13.476v-8.421l23.367 13.476v8.421zM187.822 170.54l-23.367-13.476v-8.421l23.367 13.476v8.421zM187.822 237.897l-23.367-13.477v-8.421l23.367 13.477v8.421z"/>
    </g>
    <g>
      <path fill="#F4CE2C" d="M392.971 205.081l-49.639-28.654v-8.421l49.639 28.654v8.421z"/>
      <path fill="#C33AFC" d="M422.171 290.1l-78.839-46.304v-8.421l78.839 46.304v8.421z"/>
      <path fill="#F4CE2C" d="M373.954 382.659l-30.622-17.613v-8.421l30.622 17.613v8.421z"/>
      <path fill="#C33AFC" d="M291.487 149.487l-99.29-57.259v-8.42l99.29 57.258v8.421z"/>
      <path fill="#A298E2" d="M271.036 326.306l-78.839-45.471v-8.422l78.839 45.472v8.421z"/>
      <path fill="#4D3BFF" d="M291.487 297.677l-99.29-57.259v-8.421l99.29 57.259v8.421z"/>
    </g>
  </g>
  <g>
    <path fill="#D6D8E5" d="M367.3 612c28.315 0 51.269-13.24 51.269-29.572s-22.954-29.572-51.269-29.572c-28.315 0-51.269 13.24-51.269 29.572S338.985 612 367.3 612z" opacity=".4"/>
    <path fill="#A6CE28" d="M423.605 578.23v-78.838l-102.329 2.57.22 72.706c-1.911 8.752 2.941 17.895 14.594 24.615 20.023 11.542 52.482 11.554 72.505 0 10.06-5.839 15.059-13.452 15.01-21.053z"/>
    <path fill="#BCD64D" d="M372.336 528.927c28.315 0 51.269-13.24 51.269-29.572s-22.954-29.572-51.269-29.572c-28.315 0-51.269 13.24-51.269 29.572s22.954 29.572 51.269 29.572z"/>
    <path fill="#28221C" d="M415.505 499.392c0 4.81-4.007 9.865-10.967 13.892-7.597 4.358-17.976 7.051-28.906 7.491-1.09 0-2.181.074-3.284.074-12.131 0-23.857-2.767-32.202-7.565-6.96-4.027-10.967-9.082-10.967-13.892 0-4.81 4.007-9.865 10.967-13.892 8.345-4.811 20.071-7.577 32.19-7.577 1.103 0 2.206 0 3.296.073 10.93.441 21.309 3.134 28.906 7.504 6.96 3.99 10.967 8.996 10.967 13.892z"/>
    <path fill="#fff" d="M415.505 499.392c0 4.81-4.007 9.865-10.967 13.892-7.597 4.358-17.976 7.051-28.906 7.491-10.93-.44-21.321-3.133-28.906-7.491-6.972-4.1-10.979-9.118-10.979-13.892 0-4.774 3.995-9.865 10.955-13.892 7.597-4.37 17.988-7.063 28.918-7.504 10.93.441 21.309 3.134 28.906 7.504 6.972 3.99 10.979 8.996 10.979 13.892z" opacity=".07"/>
    <path fill="#8DA01F" d="M416.106 535.879l-10.881-6.291-5.294 3.06 5.294 3.06v2.007l10.207 5.876-.306 1.885c1.482 1.224 6.763 11.016 6.763 11.016l.368-.343v25.373c0 6.659-3.909 4.407-5.575 3.44l-11.457-6.61-5.294 3.048 5.294 3.048v2.007l11.457 6.61a17.635 17.635 0 003.676 1.664l-.686 3.183 5.93-3.342h.172c2.451-1.444 3.492-4.957 3.492-8.898V559.05c.049-11.249-8.59-20.074-13.16-23.171z"/>
    <path fill="#99B524" d="M411.388 596.161l-11.457-6.609V581.4l11.457 6.61c1.667.954 5.576 3.219 5.576-3.452v-26.5c0-6.267-5.674-10.6-6.642-11.285l-10.391-5.998v-8.127l10.881 6.291c4.583 3.097 13.161 11.934 13.161 23.183v26.524c0 7.16-3.272 12.877-12.585 7.515z"/>
  </g>
  <g>
    <path fill="#D6D8E5" d="M50.693 455.34c19.497 0 35.303-9.119 35.303-20.367 0-11.249-15.806-20.368-35.303-20.368s-35.302 9.119-35.302 20.368c0 11.248 15.805 20.367 35.302 20.367z" opacity=".4"/>
    <path fill="#D6D8E5" d="M55.73 451.57c19.496 0 35.302-9.118 35.302-20.367s-15.806-20.367-35.303-20.367-35.302 9.118-35.302 20.367 15.805 20.367 35.302 20.367z"/>
    <path fill="#D6D8E5" d="M8.467 361.582l12.352 71.029h70.127l12.045-70.515-94.524-.514z"/>
    <path fill="#E4E6EF" d="M55.729 387.983c26.129 0 47.311-12.215 47.311-27.282 0-15.068-21.182-27.283-47.311-27.283-26.13 0-47.311 12.215-47.311 27.283 0 15.067 21.182 27.282 47.31 27.282z"/>
    <path fill="#28221C" d="M55.729 381.961c-11.592 0-22.4-2.546-30.438-7.184-6.899-3.966-10.844-9.107-10.844-14.076 0-4.97 3.945-10.111 10.844-14.076 8.026-4.639 18.846-7.185 30.438-7.185 11.592 0 22.412 2.546 30.438 7.185 6.898 3.965 10.844 9.106 10.844 14.076 0 4.969-3.884 10.171-10.844 14.076-8.026 4.663-18.773 7.184-30.438 7.184z"/>
    <path fill="#99B524" d="M76.082 339.207a59.656 59.656 0 00-4.275-26.908 59.717 59.717 0 00-15.796-22.211l-.135-.135v.257a59.713 59.713 0 00-15.81 22.22 59.65 59.65 0 00-4.273 26.924l-27.068-2.607c11.42 42.974 47.286 39.278 47.286 39.278v-.086c2.708.208 36.16 1.934 47.103-39.29l-27.032 2.558z"/>
    <path fill="#A6CE28" d="M56.01 376.025s-2.45-33.464-47.396-55.998c-.037 0-10.648 55.594 47.397 55.998z"/>
    <path fill="#A6CE28" d="M55.729 376.025s2.45-33.464 47.397-55.998c0 0 10.648 55.594-47.397 55.998z"/>
  </g>
  <defs>
    <linearGradient id="paint0_linear_11:161" x1="124.913" x2="477.692" y1="241.348" y2="241.348" gradientUnits="userSpaceOnUse">
      <stop offset=".21" stop-color="#fff" stop-opacity="0"/>
      <stop offset="1" stop-color="#fff" stop-opacity=".2"/>
    </linearGradient>
  </defs>
</svg>
